<svg xmlns="http://www.w3.org/2000/svg" xmlns:xlink="http://www.w3.org/1999/xlink" width="500" zoomAndPan="magnify" viewBox="0 0 375 374.999991" height="500" preserveAspectRatio="xMidYMid meet" version="1.0"><defs><clipPath id="7bf65159e5"><path d="M 0 0 L 74.839844 0 L 74.839844 375 L 0 375 Z M 0 0 " clip-rule="nonzero"/></clipPath><clipPath id="687a253438"><path d="M 74.839844 0 L 149.679688 0 L 149.679688 375 L 74.839844 375 Z M 74.839844 0 " clip-rule="nonzero"/></clipPath><clipPath id="39d03dd2d5"><path d="M 149.679688 0 L 224.515625 0 L 224.515625 375 L 149.679688 375 Z M 149.679688 0 " clip-rule="nonzero"/></clipPath><clipPath id="129a2dc9ff"><path d="M 224.515625 0 L 299.355469 0 L 299.355469 375 L 224.515625 375 Z M 224.515625 0 " clip-rule="nonzero"/></clipPath><clipPath id="cda130b638"><path d="M 299.355469 0 L 374.195312 0 L 374.195312 375 L 299.355469 375 Z M 299.355469 0 " clip-rule="nonzero"/></clipPath></defs><rect x="-37.5" width="450" fill="#ffffff" y="-37.499999" height="449.999989" fill-opacity="1"/><rect x="-37.5" width="450" fill="#ffffff" y="-37.499999" height="449.999989" fill-opacity="1"/><g clip-path="url(#7bf65159e5)"><path fill="#000000" d="M 0 0 L 74.839844 0 L 74.839844 375 L 0 375 Z M 0 0 " fill-opacity="1" fill-rule="nonzero"/></g><g clip-path="url(#687a253438)"><path fill="#0cc0df" d="M 74.839844 0 L 149.679688 0 L 149.679688 375 L 74.839844 375 Z M 74.839844 0 " fill-opacity="1" fill-rule="nonzero"/></g><g clip-path="url(#39d03dd2d5)"><path fill="#ffffff" d="M 149.679688 0 L 224.515625 0 L 224.515625 375 L 149.679688 375 Z M 149.679688 0 " fill-opacity="1" fill-rule="nonzero"/></g><g clip-path="url(#129a2dc9ff)"><path fill="#0cc0df" d="M 224.515625 0 L 299.355469 0 L 299.355469 375 L 224.515625 375 Z M 224.515625 0 " fill-opacity="1" fill-rule="nonzero"/></g><g clip-path="url(#cda130b638)"><path fill="#000000" d="M 299.355469 0 L 374.195312 0 L 374.195312 375 L 299.355469 375 Z M 299.355469 0 " fill-opacity="1" fill-rule="nonzero"/></g></svg>